<svg xmlns="http://www.w3.org/2000/svg" width="625" height="188" viewBox="0 0 625 188" fill="none">
  <g transform="translate(20,166)" fill="#E7E8F0"><path d="M111.80 0L77.80 0Q61.40 0 51.50-9.80Q41.60-19.60 41.60-35.60L41.60-35.60L41.60-123.40L5.40-123.40L5.40-146L66.60-146L66.60-36.20Q66.60-30 70.10-26.30Q73.60-22.60 79.60-22.60L79.60-22.60L111.80-22.60L111.80 0ZM180 2L180 2Q159 2 147-9.70Q135-21.40 135-41.60L135-41.60L135-110L160-110L160-41.80Q160-31.40 165.20-25.60Q170.40-19.80 180-19.80L180-19.80Q189.40-19.80 194.70-25.60Q200-31.40 200-41.80L200-41.80L200-110L225-110L225-41.60Q225-21.40 212.80-9.70Q200.60 2 180 2ZM271.40 0L249.40 0L249.40-110L270.20-110L270.20-94L270.80-94Q271.40-102 276.40-107Q281.40-112 289-112L289-112Q296.40-112 301.60-107.30Q306.80-102.60 308.60-94.60L308.60-94.60Q309.40-102.60 314.50-107.30Q319.60-112 327.40-112L327.40-112Q337.40-112 344-104.10Q350.60-96.20 350.60-83.80L350.60-83.80L350.60 0L328.60 0L328.60-82Q328.60-87.40 326.10-90.50Q323.60-93.60 319-93.60L319-93.60Q310-93.60 310-82L310-82L310 0L290 0L290-82Q290-87.40 287.70-90.50Q285.40-93.60 281-93.60L281-93.60Q271.40-93.60 271.40-82L271.40-82L271.40 0ZM420.20 2L420.20 2Q406.20 2 395.80-3.40Q385.40-8.80 379.70-18.70Q374-28.60 374-42L374-42L374-68Q374-81.40 379.70-91.30Q385.40-101.20 395.80-106.60Q406.20-112 420.20-112L420.20-112Q434-112 444.30-106.60Q454.60-101.20 460.30-91.50Q466-81.80 466-68.80L466-68.80L466-48.80L398-48.80L398-41.20Q398-30 403.80-24.30Q409.60-18.60 420.20-18.60L420.20-18.60Q428-18.60 433.50-21.30Q439-24 440-29.20L440-29.20L464.80-29.20Q462.20-15 450-6.50Q437.80 2 420.20 2ZM398-68.80L398-68.80L398-65L442-65.20L442-69Q442-80.40 436.40-86.60Q430.80-92.80 420.20-92.80L420.20-92.80Q409.20-92.80 403.60-86.50Q398-80.20 398-68.80ZM520.40 0L495.40 0L495.40-110L519.80-110L519.80-89.40Q521.80-99.80 529.60-105.90Q537.40-112 549.40-112L549.40-112Q565.60-112 575.30-101.20Q585-90.40 585-72.20L585-72.20L585 0L560 0L560-69.20Q560-79.40 554.70-84.90Q549.40-90.40 540.40-90.40L540.40-90.40Q531-90.40 525.70-84.80Q520.40-79.20 520.40-68.80L520.40-68.80L520.40 0Z"></path></g>
</svg>